<mxfile host="app.diagrams.net" modified="2023-06-06T11:29:48.557Z" agent="Mozilla/5.0 (Windows NT 10.0; Win64; x64) AppleWebKit/537.36 (KHTML, like Gecko) Chrome/114.0.0.0 Safari/537.36" etag="kGwZ9YseoYVXsYhDJGg7" version="21.3.7" type="device">
  <diagram name="Page-1" id="fHe215YbdDqYGJMwz6E5">
    <mxGraphModel dx="1500" dy="824" grid="1" gridSize="10" guides="1" tooltips="1" connect="1" arrows="1" fold="1" page="1" pageScale="1" pageWidth="850" pageHeight="1100" math="0" shadow="0">
      <root>
        <mxCell id="0" />
        <mxCell id="1" parent="0" />
        <mxCell id="P_g_O1UX5Ya7a40N1hHE-4" value="" style="edgeStyle=orthogonalEdgeStyle;rounded=0;orthogonalLoop=1;jettySize=auto;html=1;" edge="1" parent="1" source="P_g_O1UX5Ya7a40N1hHE-2" target="P_g_O1UX5Ya7a40N1hHE-3">
          <mxGeometry relative="1" as="geometry" />
        </mxCell>
        <mxCell id="P_g_O1UX5Ya7a40N1hHE-14" style="edgeStyle=orthogonalEdgeStyle;rounded=0;orthogonalLoop=1;jettySize=auto;html=1;exitX=0;exitY=1;exitDx=0;exitDy=0;entryX=1;entryY=1;entryDx=0;entryDy=0;" edge="1" parent="1" source="P_g_O1UX5Ya7a40N1hHE-3" target="P_g_O1UX5Ya7a40N1hHE-2">
          <mxGeometry relative="1" as="geometry" />
        </mxCell>
        <mxCell id="P_g_O1UX5Ya7a40N1hHE-17" value="" style="edgeStyle=orthogonalEdgeStyle;rounded=0;orthogonalLoop=1;jettySize=auto;html=1;entryX=1;entryY=0.75;entryDx=0;entryDy=0;exitX=0;exitY=1;exitDx=0;exitDy=0;" edge="1" parent="1" source="P_g_O1UX5Ya7a40N1hHE-2" target="P_g_O1UX5Ya7a40N1hHE-16">
          <mxGeometry relative="1" as="geometry" />
        </mxCell>
        <mxCell id="P_g_O1UX5Ya7a40N1hHE-2" value="LOGIN" style="ellipse;whiteSpace=wrap;html=1;aspect=fixed;" vertex="1" parent="1">
          <mxGeometry x="300" y="180" width="80" height="80" as="geometry" />
        </mxCell>
        <mxCell id="P_g_O1UX5Ya7a40N1hHE-6" style="edgeStyle=orthogonalEdgeStyle;rounded=0;orthogonalLoop=1;jettySize=auto;html=1;exitX=1;exitY=1;exitDx=0;exitDy=0;entryX=0.25;entryY=1;entryDx=0;entryDy=0;" edge="1" parent="1" source="P_g_O1UX5Ya7a40N1hHE-3" target="P_g_O1UX5Ya7a40N1hHE-5">
          <mxGeometry relative="1" as="geometry">
            <mxPoint x="640" y="320" as="targetPoint" />
            <Array as="points">
              <mxPoint x="620" y="248" />
              <mxPoint x="620" y="280" />
              <mxPoint x="740" y="280" />
            </Array>
          </mxGeometry>
        </mxCell>
        <mxCell id="P_g_O1UX5Ya7a40N1hHE-10" style="edgeStyle=orthogonalEdgeStyle;rounded=0;orthogonalLoop=1;jettySize=auto;html=1;exitX=0.5;exitY=0;exitDx=0;exitDy=0;entryX=1;entryY=0;entryDx=0;entryDy=0;" edge="1" parent="1" source="P_g_O1UX5Ya7a40N1hHE-5" target="P_g_O1UX5Ya7a40N1hHE-3">
          <mxGeometry relative="1" as="geometry">
            <Array as="points">
              <mxPoint x="770" y="160" />
              <mxPoint x="620" y="160" />
              <mxPoint x="620" y="192" />
            </Array>
          </mxGeometry>
        </mxCell>
        <mxCell id="P_g_O1UX5Ya7a40N1hHE-3" value="Validate credentials" style="ellipse;whiteSpace=wrap;html=1;" vertex="1" parent="1">
          <mxGeometry x="540" y="180" width="80" height="80" as="geometry" />
        </mxCell>
        <mxCell id="P_g_O1UX5Ya7a40N1hHE-5" value="User data-base" style="shape=partialRectangle;whiteSpace=wrap;html=1;left=0;right=0;fillColor=none;" vertex="1" parent="1">
          <mxGeometry x="710" y="190" width="120" height="60" as="geometry" />
        </mxCell>
        <mxCell id="P_g_O1UX5Ya7a40N1hHE-11" value="stored user data" style="text;html=1;align=center;verticalAlign=middle;resizable=0;points=[];autosize=1;strokeColor=none;fillColor=none;" vertex="1" parent="1">
          <mxGeometry x="630" y="130" width="110" height="30" as="geometry" />
        </mxCell>
        <mxCell id="P_g_O1UX5Ya7a40N1hHE-12" value="request user data" style="text;html=1;align=center;verticalAlign=middle;resizable=0;points=[];autosize=1;strokeColor=none;fillColor=none;" vertex="1" parent="1">
          <mxGeometry x="620" y="278" width="120" height="30" as="geometry" />
        </mxCell>
        <mxCell id="P_g_O1UX5Ya7a40N1hHE-13" value="validate user credentials" style="text;html=1;align=center;verticalAlign=middle;resizable=0;points=[];autosize=1;strokeColor=none;fillColor=none;" vertex="1" parent="1">
          <mxGeometry x="380" y="190" width="150" height="30" as="geometry" />
        </mxCell>
        <mxCell id="P_g_O1UX5Ya7a40N1hHE-15" value="User data/None&amp;nbsp;" style="text;html=1;align=center;verticalAlign=middle;resizable=0;points=[];autosize=1;strokeColor=none;fillColor=none;" vertex="1" parent="1">
          <mxGeometry x="390" y="248" width="110" height="30" as="geometry" />
        </mxCell>
        <mxCell id="P_g_O1UX5Ya7a40N1hHE-19" style="edgeStyle=orthogonalEdgeStyle;rounded=0;orthogonalLoop=1;jettySize=auto;html=1;exitX=1;exitY=0.25;exitDx=0;exitDy=0;entryX=0;entryY=0;entryDx=0;entryDy=0;" edge="1" parent="1" source="P_g_O1UX5Ya7a40N1hHE-16" target="P_g_O1UX5Ya7a40N1hHE-2">
          <mxGeometry relative="1" as="geometry">
            <Array as="points">
              <mxPoint x="225" y="205" />
              <mxPoint x="225" y="192" />
            </Array>
          </mxGeometry>
        </mxCell>
        <mxCell id="P_g_O1UX5Ya7a40N1hHE-16" value="USER&lt;br&gt;( Doctor/ Patient/ Admin )" style="whiteSpace=wrap;html=1;" vertex="1" parent="1">
          <mxGeometry x="30" y="190" width="120" height="60" as="geometry" />
        </mxCell>
        <mxCell id="P_g_O1UX5Ya7a40N1hHE-18" value="Response &lt;br&gt;(redirect to user home page base on role )" style="text;html=1;align=center;verticalAlign=middle;resizable=0;points=[];autosize=1;strokeColor=none;fillColor=none;" vertex="1" parent="1">
          <mxGeometry x="90" y="250" width="250" height="40" as="geometry" />
        </mxCell>
        <mxCell id="P_g_O1UX5Ya7a40N1hHE-20" value="user_name, Password" style="text;html=1;align=center;verticalAlign=middle;resizable=0;points=[];autosize=1;strokeColor=none;fillColor=none;" vertex="1" parent="1">
          <mxGeometry x="160" y="160" width="140" height="30" as="geometry" />
        </mxCell>
      </root>
    </mxGraphModel>
  </diagram>
</mxfile>
